<svg xmlns="http://www.w3.org/2000/svg" viewBox="0 0 470 310" width="100%" role="img"><rect width="470" height="310" fill="#ffffff"/><g fill="none" stroke="#111111" stroke-width="2" stroke-linecap="round" stroke-linejoin="round"><line x1="78.0" y1="250.0" x2="78.0" y2="50.0" stroke="#111111" stroke-width="2.4"/><line x1="78.0" y1="250.0" x2="428.0" y2="250.0" stroke="#111111" stroke-width="2.4"/><line x1="78.0" y1="250.0" x2="78.0" y2="52.0" stroke="#111111" stroke-width="2.4"/><polygon points="78.0,42.0 82.2,52.0 73.8,52.0" fill="#111111" stroke="#111111" stroke-width="1"/><line x1="78.0" y1="250.0" x2="426.0" y2="250.0" stroke="#111111" stroke-width="2.4"/><polygon points="436.0,250.0 426.0,254.2 426.0,245.8" fill="#111111" stroke="#111111" stroke-width="1"/><text x="253.0" y="284.0" font-family="ui-sans-serif, system-ui, Segoe UI, sans-serif" font-size="13" font-weight="600" text-anchor="middle" fill="#111111" stroke="none">Speed (IAS)</text><g transform="rotate(-90 44 150.0)"><text x="44.0" y="150.0" font-family="ui-sans-serif, system-ui, Segoe UI, sans-serif" font-size="13" font-weight="600" text-anchor="middle" fill="#111111" stroke="none">Drag / Thrust</text></g><path d="M108.4,149.5 L111.5,155.9 L114.5,161.7 L117.6,167.0 L120.6,171.8 L123.7,176.2 L126.7,180.2 L129.7,183.9 L132.8,187.4 L135.8,190.5 L138.9,193.5 L141.9,196.2 L145.0,198.7 L148.0,201.1 L151.0,203.3 L154.1,205.3 L157.1,207.3 L160.2,209.1 L163.2,210.7 L166.3,212.3 L169.3,213.8 L172.3,215.2 L175.4,216.6 L178.4,217.8 L181.5,219.0 L184.5,220.1 L187.6,221.2 L190.6,222.2 L193.7,223.1 L196.7,224.0 L199.7,224.9 L202.8,225.7 L205.8,226.5 L208.9,227.2 L211.9,227.9 L215.0,228.6 L218.0,229.2 L221.0,229.9 L224.1,230.4 L227.1,231.0 L230.2,231.5 L233.2,232.1 L236.3,232.6 L239.3,233.0 L242.3,233.5 L245.4,233.9 L248.4,234.3 L251.5,234.7 L254.5,235.1 L257.6,235.5 L260.6,235.9 L263.7,236.2 L266.7,236.6 L269.7,236.9 L272.8,237.2 L275.8,237.5 L278.9,237.8 L281.9,238.1 L285.0,238.3 L288.0,238.6 L291.0,238.8 L294.1,239.1 L297.1,239.3 L300.2,239.5 L303.2,239.8 L306.3,240.0 L309.3,240.2 L312.3,240.4 L315.4,240.6 L318.4,240.8 L321.5,241.0 L324.5,241.1 L327.6,241.3 L330.6,241.5 L333.7,241.6 L336.7,241.8 L339.7,242.0 L342.8,242.1 L345.8,242.2 L348.9,242.4 L351.9,242.5 L355.0,242.7 L358.0,242.8 L361.0,242.9 L364.1,243.0 L367.1,243.2 L370.2,243.3 L373.2,243.4 L376.3,243.5 L379.3,243.6 L382.3,243.7 L385.4,243.8 L388.4,243.9 L391.5,244.0 L394.5,244.1 L397.6,244.2 L400.6,244.3 L403.7,244.4 L406.7,244.5 L409.7,244.6 L412.8,244.6 L415.8,244.7 L418.9,244.8" fill="none" stroke="#111111" stroke-width="2.6"/><path d="M108.4,238.3 L111.5,237.5 L114.5,236.6 L117.6,235.8 L120.6,234.9 L123.7,234.0 L126.7,233.1 L129.7,232.1 L132.8,231.2 L135.8,230.2 L138.9,229.1 L141.9,228.1 L145.0,227.0 L148.0,225.9 L151.0,224.7 L154.1,223.6 L157.1,222.4 L160.2,221.2 L163.2,219.9 L166.3,218.7 L169.3,217.4 L172.3,216.1 L175.4,214.7 L178.4,213.4 L181.5,212.0 L184.5,210.5 L187.6,209.1 L190.6,207.6 L193.7,206.1 L196.7,204.6 L199.7,203.0 L202.8,201.5 L205.8,199.9 L208.9,198.2 L211.9,196.6 L215.0,194.9 L218.0,193.2 L221.0,191.4 L224.1,189.7 L227.1,187.9 L230.2,186.1 L233.2,184.2 L236.3,182.4 L239.3,180.5 L242.3,178.6 L245.4,176.6 L248.4,174.7 L251.5,172.7 L254.5,170.6 L257.6,168.6 L260.6,166.5 L263.7,164.4 L266.7,162.3 L269.7,160.1 L272.8,158.0 L275.8,155.8 L278.9,153.5 L281.9,151.3 L285.0,149.0 L288.0,146.7 L291.0,144.3 L294.1,142.0 L297.1,139.6 L300.2,137.2 L303.2,134.7 L306.3,132.3 L309.3,129.8 L312.3,127.3 L315.4,124.7 L318.4,122.2 L321.5,119.6 L324.5,116.9 L327.6,114.3 L330.6,111.6 L333.7,108.9 L336.7,106.2 L339.7,103.4 L342.8,100.7 L345.8,97.9 L348.9,95.0 L351.9,92.2 L355.0,89.3 L358.0,86.4 L361.0,83.4 L364.1,80.5 L367.1,77.5 L370.2,74.5 L373.2,71.4 L376.3,68.4 L379.3,65.3 L382.3,62.2 L385.4,59.0 L388.4,55.9 L391.5,52.7" fill="none" stroke="#111111" stroke-width="2.6"/><path d="M108.4,137.8 L111.5,143.4 L114.5,148.3 L117.6,152.8 L120.6,156.7 L123.7,160.2 L126.7,163.3 L129.7,166.1 L132.8,168.5 L135.8,170.7 L138.9,172.6 L141.9,174.3 L145.0,175.7 L148.0,177.0 L151.0,178.0 L154.1,178.9 L157.1,179.7 L160.2,180.2 L163.2,180.7 L166.3,181.0 L169.3,181.2 L172.3,181.3 L175.4,181.3 L178.4,181.2 L181.5,181.0 L184.5,180.6 L187.6,180.3 L190.6,179.8 L193.7,179.2 L196.7,178.6 L199.7,177.9 L202.8,177.2 L205.8,176.3 L208.9,175.4 L211.9,174.5 L215.0,173.5 L218.0,172.4 L221.0,171.3 L224.1,170.1 L227.1,168.9 L230.2,167.6 L233.2,166.3 L236.3,164.9 L239.3,163.5 L242.3,162.1 L245.4,160.6 L248.4,159.0 L251.5,157.4 L254.5,155.8 L257.6,154.1 L260.6,152.4 L263.7,150.6 L266.7,148.8 L269.7,147.0 L272.8,145.1 L275.8,143.2 L278.9,141.3 L281.9,139.3 L285.0,137.3 L288.0,135.3 L291.0,133.2 L294.1,131.1 L297.1,128.9 L300.2,126.7 L303.2,124.5 L306.3,122.3 L309.3,120.0 L312.3,117.7 L315.4,115.3 L318.4,112.9 L321.5,110.5 L324.5,108.1 L327.6,105.6 L330.6,103.1 L333.7,100.6 L336.7,98.0 L339.7,95.4 L342.8,92.8 L345.8,90.1 L348.9,87.4 L351.9,84.7 L355.0,82.0 L358.0,79.2 L361.0,76.4 L364.1,73.5 L367.1,70.7 L370.2,67.8 L373.2,64.8 L376.3,61.9 L379.3,58.9 L382.3,55.9 L385.4,52.9" fill="none" stroke="#111111" stroke-width="2.6"/><line x1="108.4" y1="79.6" x2="400.6" y2="79.6" stroke="#111111" stroke-width="2.6"/><line x1="351.9" y1="222.5" x2="351.9" y2="242.5" stroke="#111111" stroke-width="1.2"/><circle cx="351.9" cy="242.5" r="3.6" fill="#111111" stroke="#111111" stroke-width="1.4"/><text x="351.9" y="227.5" font-family="ui-sans-serif, system-ui, Segoe UI, sans-serif" font-size="15" font-weight="700" text-anchor="middle" fill="#111111" stroke="none">1</text><line x1="230.2" y1="200.1" x2="230.2" y2="186.1" stroke="#111111" stroke-width="1.2"/><circle cx="230.2" cy="186.1" r="3.6" fill="#111111" stroke="#111111" stroke-width="1.4"/><text x="230.2" y="213.1" font-family="ui-sans-serif, system-ui, Segoe UI, sans-serif" font-size="15" font-weight="700" text-anchor="middle" fill="#111111" stroke="none">2</text><line x1="175.4" y1="161.3" x2="175.4" y2="181.3" stroke="#111111" stroke-width="1.2"/><circle cx="175.4" cy="181.3" r="3.6" fill="#111111" stroke="#111111" stroke-width="1.4"/><text x="175.4" y="166.3" font-family="ui-sans-serif, system-ui, Segoe UI, sans-serif" font-size="15" font-weight="700" text-anchor="middle" fill="#111111" stroke="none">3</text><line x1="154.1" y1="63.6" x2="154.1" y2="79.6" stroke="#111111" stroke-width="1.2"/><circle cx="154.1" cy="79.6" r="3.6" fill="#111111" stroke="#111111" stroke-width="1.4"/><text x="154.1" y="68.6" font-family="ui-sans-serif, system-ui, Segoe UI, sans-serif" font-size="15" font-weight="700" text-anchor="middle" fill="#111111" stroke="none">4</text></g></svg>